<?xml version="1.0" standalone="no"?>
<!DOCTYPE svg PUBLIC "-//W3C//DTD SVG 1.1//EN" "http://www.w3.org/Graphics/SVG/1.1/DTD/svg11.dtd" >
<svg xmlns="http://www.w3.org/2000/svg">
<metadata></metadata>
<defs>
<font id="utm_akashiregular" horiz-adv-x="1400" >
<font-face units-per-em="2048" ascent="1638" descent="-410" />
<missing-glyph horiz-adv-x="700" />
<glyph horiz-adv-x="0" />
<glyph unicode="&#xd;" horiz-adv-x="571" />
<glyph unicode=" "  horiz-adv-x="700" />
<glyph unicode="&#x09;" horiz-adv-x="700" />
<glyph unicode="&#xa0;" horiz-adv-x="700" />
<glyph unicode="!" horiz-adv-x="500" d="M0 400v1100h302v-1100h-302zM1 -1v300h300v-300h-300z" />
<glyph unicode="&#x22;" horiz-adv-x="751" d="M1 1501l50 -399l150 1l50 398h-250zM350 1501l50 -399l150 1l50 398h-250z" />
<glyph unicode="#" horiz-adv-x="2000" d="M0 371h391l-124 -371h300l124 371h199l-124 -371h300l124 371h391l95 285h-391l62 188h392l95 285h-392l124 371h-300l-124 -371h-199l124 371h-300l-124 -371h-390l-95 -285h390l-62 -188h-391zM786 656l62 188h199l-62 -188h-199z" />
<glyph unicode="$" d="M0 1h400v-101h150v101h100v-101h150v101h200q200 0 200 200v500q0 199 -200 199h-200v301h301l99 300h-400v99h-150v-99h-100v99h-150v-99h-200q-200 0 -200 -201v-500q0 -199 200 -199h200v-301h-400v-299zM300 900v301h100v-301h-100zM550 301v300h100v-300h-100z M550 900v301h100v-301h-100zM800 301v300h100v-300h-100z" />
<glyph unicode="%" horiz-adv-x="1752" d="M0 1138v3q0 359 359 359q360 0 360 -360v-1q0 -360 -360 -360q-359 0 -359 359zM200 1138q0 -159 159 -159q160 0 161 160v1q-1 160 -161 160q-159 0 -159 -159v-3zM210 40l939 1420q10 40 50 40h170q40 0 30 -40l-939 -1420q-10 -40 -50 -40h-170q-40 0 -30 40zM881 359 v3q0 359 359 359q360 0 360 -360v-1q0 -360 -360 -360q-359 0 -359 359zM1081 359q0 -159 159 -159q160 0 161 160v1q-1 160 -161 160q-159 0 -159 -159v-3z" />
<glyph unicode="&#x26;" d="M0 200q0 -200 200 -200h1000v300h-300v300h100v300h-100v100h-300v-100h-300v300h499l100 300h-699q-200 0 -200 -200v-1100zM300 300v300h300v-300h-300z" />
<glyph unicode="'" horiz-adv-x="400" d="M-1 1500l50 -399l152 1l50 398h-252z" />
<glyph unicode="(" horiz-adv-x="700" d="M0 -99q0 -201 200 -201h300l-100 299h-100v1501h100l100 300h-300q-200 0 -200 -200v-1699z" />
<glyph unicode=")" horiz-adv-x="700" d="M0 -300h300q200 0 200 201v1699q0 200 -200 200h-300l100 -300h100v-1501h-100z" />
<glyph unicode="*" horiz-adv-x="900" d="M99 1244l32 98l228 -83v241h100v-241l227 86l38 -96l-235 -89l145 -195l-75 -65l-152 200l-148 -200l-80 44l149 221z" />
<glyph unicode="+" horiz-adv-x="1200" d="M0 600h350v-350h300v350h350v300h-350v350h-300v-350h-350v-300z" />
<glyph unicode="," horiz-adv-x="500" d="M1 0v300h300v-300l-101 -200h-100v200h-99z" />
<glyph unicode="-" horiz-adv-x="1200" d="M0 398l1000 2v300l-900 -2z" />
<glyph unicode="." horiz-adv-x="500" d="M1 0v300h300v-300h-300z" />
<glyph unicode="/" horiz-adv-x="1100" d="M0 -100l640 1700h300l-640 -1700h-300z" />
<glyph unicode="0" d="M0 200v1100q0 200 200 200h800q200 0 200 -200v-1100q0 -200 -200 -200h-800q-200 0 -200 200zM300 300h600v900h-600v-900z" />
<glyph unicode="1" horiz-adv-x="700" d="M-1 1200l98 300h202q200 0 200 -200v-1300h-300v1200h-200z" />
<glyph unicode="2" d="M0 1h1200v301l-900 -1v301h700q200 0 200 199v500q0 200 -200 200h-1000l100 -301l800 1v-300h-700q-200 0 -200 -199v-701z" />
<glyph unicode="3" horiz-adv-x="1200" d="M0 0h800q200 0 200 200v1100q0 200 -200 200h-800v-300h700v-300h-400l-100 -300h500v-300h-700v-300z" />
<glyph unicode="4" d="M0 600v900h300v-800h600v800h300v-1500h-300v400h-700q-200 0 -200 200z" />
<glyph unicode="5" d="M0 1h1000q200 0 200 200v500q0 199 -200 199h-700v301l900 -1v301h-1200v-701q0 -199 200 -199h700v-300l-800 -1z" />
<glyph unicode="6" d="M0 200q0 -200 200 -200h800q200 0 200 200v700q0 200 -200 200h-700v100h699l100 300h-899q-200 0 -200 -200v-1100zM300 300v500h600v-500h-600z" />
<glyph unicode="7" horiz-adv-x="1200" d="M-1 1200l98 300h704q200 0 200 -200v-1300h-300v1200h-702z" />
<glyph unicode="8" d="M0 200v500q0 100 50 150v450q0 200 200 200h701q200 0 200 -200v-451q49 -50 49 -149v-500q0 -200 -200 -200h-800q-200 0 -200 200zM300 300h600v300h-600v-300zM350 900h501v300h-501v-300z" />
<glyph unicode="9" d="M0 600q0 -200 200 -200h700v-100h-400l-100 -300h600q200 0 200 200v1100q0 200 -200 200h-800q-200 0 -200 -200v-700zM300 700v500h600v-500h-600z" />
<glyph unicode=":" horiz-adv-x="500" d="M1 -1v300h300v-300h-300zM1 600v300h300v-300h-300z" />
<glyph unicode=";" horiz-adv-x="500" d="M1 0v300h300v-300l-101 -200h-100v200h-99zM1 600v300h300v-300h-300z" />
<glyph unicode="&#x3c;" horiz-adv-x="1100" d="M0 700v100q0 41 23 47l838 353q40 0 40 -40v-130q0 -40 -40 -50l-507 -214q-64 -16 0 -32l507 -214q40 -10 40 -50v-130q0 -40 -40 -40l-838 355q-23 6 -23 45z" />
<glyph unicode="=" horiz-adv-x="1200" d="M0 400h1000v300h-1000v-300zM0 800h1000v300h-1000v-300z" />
<glyph unicode="&#x3e;" horiz-adv-x="1100" d="M0 340v130q0 40 40 50l507 214q64 16 0 32l-507 214q-40 10 -40 50v130q0 40 40 40l838 -353q23 -6 23 -47v-100q0 -39 -23 -45l-838 -355q-40 0 -40 40z" />
<glyph unicode="?" d="M0 1501l100 -301l800 1v-300h-401q-200 0 -200 -199v-302h300v202h401q200 0 200 199v500q0 200 -200 200h-1000zM300 0v300h300v-300h-300z" />
<glyph unicode="@" horiz-adv-x="1800" d="M2 200q0 -200 200 -200h798l100 300h-800v900h999v-500h-600v100h500v300h-600q-200 0 -200 -200v-300q0 -200 200 -200h800q200 0 200 200v700q0 200 -200 200h-1197q-200 0 -200 -200v-1100z" />
<glyph unicode="A" d="M0 0v1301q0 200 200 200h800q200 0 200 -200v-1301h-300v401h-600v-401h-300zM300 701h600v500h-600v-500z" />
<glyph unicode="B" d="M0 0v1500h902q200 0 200 -200v-568q98 -42 98 -182v-350q0 -200 -200 -200h-1000zM300 300h600v299h-600v-299zM300 901h502v299h-502v-299z" />
<glyph unicode="C" horiz-adv-x="1200" d="M0 200q0 -200 200 -200h800v300h-700v900h600l100 300h-800q-200 0 -200 -200v-1100z" />
<glyph unicode="D" d="M0 0v1500h1001q200 0 200 -200l-1 -1100q0 -200 -200 -200h-1000zM300 300h600v899h-600v-899z" />
<glyph unicode="E" horiz-adv-x="1200" d="M0 200q0 -200 200 -200h800v300h-700v300h300l100 300h-400v300h700v300h-800q-200 0 -200 -200v-1100z" />
<glyph unicode="F" horiz-adv-x="1200" d="M0 0h300v600h300l100 300h-400v300h700v300h-800q-200 0 -200 -200v-1300z" />
<glyph unicode="G" d="M0 200q0 -200 200 -200h800q200 0 200 200v500q0 200 -200 200h-399l-100 -300h399v-300h-600v900h900v300h-1000q-200 0 -200 -200v-1100z" />
<glyph unicode="H" d="M0 0h300v600h600v-600h300v1500h-300v-600h-600v600h-300v-1500z" />
<glyph unicode="I" horiz-adv-x="500" d="M0 0h300v1500h-300v-1500z" />
<glyph unicode="J" horiz-adv-x="1200" d="M0 0l100 300h600v1200h300v-1300q0 -200 -200 -200h-800z" />
<glyph unicode="K" d="M0 0v1500h300v-600h190l210 600h300l-211 -602q168 -18 231 -198l280 -700h-300l-251 600h-449v-600h-300z" />
<glyph unicode="L" horiz-adv-x="1200" d="M0 200v1300h300v-1200h700v-300h-800q-200 0 -200 200z" />
<glyph unicode="M" horiz-adv-x="1900" d="M0 0v1300q0 200 200 200h1300q200 0 200 -200v-1300h-300l-1 1200h-398v-1200h-300v1200h-401v-1200h-300z" />
<glyph unicode="N" d="M0 0v1301q0 200 200 200h801q200 0 200 -200v-1301h-300l-1 1201h-600v-1201h-300z" />
<glyph unicode="O" d="M0 200v1100q0 200 200 200h800q200 0 200 -200v-1100q0 -200 -200 -200h-800q-200 0 -200 200zM300 300h600v900h-600v-900z" />
<glyph unicode="P" d="M0 0h300v1200h600v-500h-400l-100 -300h600q200 0 200 200v700q0 200 -200 200h-800q-200 0 -200 -200v-1300z" />
<glyph unicode="Q" d="M0 200v1100q0 200 200 200h800q200 0 200 -200v-1100q0 -200 -200 -200h-41l40 -100h-300l-40 100h-459q-200 0 -200 200zM300 300h219l-40 101h300l40 -101h81v900h-600v-900z" />
<glyph unicode="R" d="M0 0h300v600h351l251 -600h300l-240 600h38q200 0 200 200v500q0 200 -200 200h-800q-200 0 -200 -200v-1300zM300 900v300h600v-300h-600z" />
<glyph unicode="S" d="M0 1h1000q200 0 200 200v500q0 199 -200 199h-700v301h801l99 300h-1000q-200 0 -200 -201v-500q0 -199 200 -199h700v-300l-900 -1v-299z" />
<glyph unicode="T" horiz-adv-x="1300" d="M0 1200h400v-1200h300v1200h400v300h-1100v-300z" />
<glyph unicode="U" d="M0 200v1300h300v-1200h600l1 1200h300v-1300q0 -200 -200 -200h-801q-200 0 -200 200z" />
<glyph unicode="V" d="M0 1500l440 -1500h419l440 1500h-300l-349 -1191l-350 1191h-300z" />
<glyph unicode="W" horiz-adv-x="1900" d="M0 200v1300h300v-1200h401v1200h300v-1200h398l1 1200h300v-1300q0 -200 -200 -200h-1300q-200 0 -200 200z" />
<glyph unicode="X" d="M-1 0v300h180l225 450l-225 450h-180v300h330l270 -533l270 533h330v-300h-180l-225 -450l225 -450h180v-300h-330l-270 533l-270 -533h-330z" />
<glyph unicode="Y" d="M0 601v900h300v-800h600v800h301l-1 -1300q0 -200 -200 -200h-800l100 300h600v100h-700q-200 0 -200 200z" />
<glyph unicode="Z" d="M0 201q0 -200 200 -200l1000 -1v300h-870l670 599q200 162 200 311v90q0 200 -198 200h-2h-1000v-300h870l-670 -602q-200 -159 -200 -308v-89z" />
<glyph unicode="[" horiz-adv-x="700" d="M0 -299h300v-2h200l-100 300h-100v1501h100l100 300h-200v-1h-300v-2098z" />
<glyph unicode="\" horiz-adv-x="1100" d="M0 1600h300l640 -1700h-300z" />
<glyph unicode="]" horiz-adv-x="700" d="M0 -301l100 300h100v1501h-100l-100 300h200v-1h300v-2098h-300v-2h-200z" />
<glyph unicode="^" horiz-adv-x="1000" d="M3 1239l405 538q16 23 45 23h8q29 0 45 -23l405 -538q10 -40 -30 -40h-90q-40 0 -70 40l-264 296l-264 -296q-30 -40 -70 -40h-90q-40 0 -30 40z" />
<glyph unicode="_" d="M0 -151h1201v152h-1150z" />
<glyph unicode="`" horiz-adv-x="1099" />
<glyph unicode="a" d="M0 200v700q0 200 200 200h800q200 0 200 -200v-900h-300l-1 800h-599v-500h500l-100 -300h-499q-201 0 -201 200z" />
<glyph unicode="b" d="M0 200q0 -200 200 -200h800q200 0 200 200v700q0 200 -200 200h-500l-100 -300h500v-500h-600v1200h-300v-1300z" />
<glyph unicode="c" horiz-adv-x="1200" d="M0 200q0 -200 200 -200h800v300h-700v500h600l100 300h-800q-200 0 -200 -200v-700z" />
<glyph unicode="d" d="M0 200q0 -200 200 -200h800q200 0 200 200v1300h-300v-1200h-600v500h400l100 300h-600q-200 0 -200 -200v-700z" />
<glyph unicode="e" d="M0 200q0 -200 200 -200h701l98 300h-699v500h600v-100h-500v-300h600q200 0 200 200v300q0 200 -200 200h-800q-200 0 -200 -200v-700z" />
<glyph unicode="f" horiz-adv-x="600" d="M0 0v1300q0 200 200 200h300l-100 -300h-100v-100h100v-300h-100v-800h-300z" />
<glyph unicode="g" d="M0 200q0 -200 200 -200h500l100 300h-500v500h600v-900h-400l-100 -300h600q200 0 200 200v1100q0 200 -200 200h-800q-200 0 -200 -200v-700z" />
<glyph unicode="h" d="M0 0v1500h300v-400h700q200 0 200 -200v-900h-300v800h-600v-800h-300z" />
<glyph unicode="i" horiz-adv-x="500" d="M0 0v1100h300v-1100h-300zM0 1200h200l100 300h-300v-300z" />
<glyph unicode="j" horiz-adv-x="500" d="M-200 -400l100 300h100v1200h300v-1300q0 -200 -200 -200h-300zM0 1200h200l100 300h-300v-300z" />
<glyph unicode="k" horiz-adv-x="1300" d="M0 0h300v400h429l171 -400h300l-200 500q-64 182 -235 198l134 402h-300l-133 -400h-166v800h-300v-1500z" />
<glyph unicode="l" horiz-adv-x="500" d="M0 0v1500h300v-1500h-300z" />
<glyph unicode="m" horiz-adv-x="1900" d="M0 0v900q0 200 200 200h1300q200 0 200 -200v-900h-300l-1 800h-398v-800h-300v800h-401v-800h-300z" />
<glyph unicode="n" d="M0 0v900q0 200 200 200h801q200 0 200 -200v-900h-300l-1 800h-600v-800h-300z" />
<glyph unicode="o" d="M0 200v700q0 200 200 200h800q200 0 200 -200v-700q0 -200 -200 -200h-800q-200 0 -200 200zM300 300h600v500h-600v-500z" />
<glyph unicode="p" d="M0 -400h300v1200h600v-500h-400l-100 -300h600q200 0 200 200v700q0 200 -200 200h-800q-200 0 -200 -200v-1300z" />
<glyph unicode="q" d="M0 200q0 -200 200 -200h500l100 300h-500v500h600v-1200h300l100 300h-100v1000q0 200 -200 200h-800q-200 0 -200 -200v-700z" />
<glyph unicode="r" horiz-adv-x="900" d="M0 0v900q0 200 200 200h599l-100 -300h-399v-800h-300z" />
<glyph unicode="s" d="M0 1h1000q200 0 200 200v300q0 199 -200 199h-700v101h801l99 300h-1000q-200 0 -200 -201v-300q0 -199 200 -199h700v-100l-900 -1v-299z" />
<glyph unicode="t" horiz-adv-x="700" d="M0 200v1100h300v-200h200l-100 -299h-100v-501h200v-300h-300q-200 0 -200 200z" />
<glyph unicode="u" d="M0 200v900h300v-800h600l1 800h300v-900q0 -200 -200 -200h-801q-200 0 -200 200z" />
<glyph unicode="v" d="M0 1100l440 -1100h419l440 1100h-300l-320 -800h-59l-320 800h-300z" />
<glyph unicode="w" horiz-adv-x="1900" d="M0 200v900h300v-800h401v800h300v-800h398l1 800h300v-900q0 -200 -200 -200h-1300q-200 0 -200 200z" />
<glyph unicode="x" d="M-1 0v300h180l225 250l-225 250h-180v300h300l300 -333l300 333h300v-300h-180l-225 -250l225 -250h180v-300h-300l-300 333l-300 -333h-300z" />
<glyph unicode="y" d="M0 200v900h300v-800h600v800h301l-1 -1300q0 -200 -200 -200h-600l100 300h400v100h-700q-200 0 -200 200z" />
<glyph unicode="z" d="M0 201q0 -200 200 -200l1000 -1v300h-900l700 199q200 50 200 199v202q0 200 -198 200h-2h-1000v-300h900l-700 -202q-200 -50 -200 -199v-198z" />
<glyph unicode="{" horiz-adv-x="700" d="M0 -100v1700q0 200 200 200h300l-100 -300h-100v-600l-200 -100l200 -100v-701h100l100 -300h-200v1h-100q-200 -1 -200 200z" />
<glyph unicode="|" horiz-adv-x="500" d="M0 -299h300v2098h-300v-2098z" />
<glyph unicode="}" horiz-adv-x="700" d="M0 -301l100 300h100v701l200 100l-200 100v600h-100l-100 300h300q200 0 200 -200v-1700q0 -201 -200 -200h-100v-1h-200z" />
<glyph unicode="~" horiz-adv-x="900" d="M0 490v120q0 40 40 40q155 30 233 15t155.5 -30t232.5 15q40 0 40 -40v-120q0 -40 -40 -40q-155 -30 -232.5 -15t-155.5 30t-233 -15q-40 0 -40 40z" />
<glyph unicode="&#xad;" horiz-adv-x="1200" d="M0 398l1000 2v300l-900 -2z" />
<glyph unicode="&#xc0;" d="M0 0v1301q0 200 200 200h800q200 0 200 -200v-1301h-300v401h-600v-401h-300zM300 701h600v500h-600v-500zM424 1750l250 -150h100l-250 250z" />
<glyph unicode="&#xc1;" d="M0 0v1301q0 200 200 200h800q200 0 200 -200v-1301h-300v401h-600v-401h-300zM300 701h600v500h-600v-500zM424 1600h100l250 150l-100 100z" />
<glyph unicode="&#xc2;" d="M0 0v1301q0 200 200 200h800q200 0 200 -200v-1301h-300v401h-600v-401h-300zM300 701h600v500h-600v-500zM349 1600h100l150 90l150 -90h100l-150 150l-100 100l-100 -100z" />
<glyph unicode="&#xc3;" d="M0 0v1301q0 200 200 200h800q200 0 200 -200v-1301h-300v401h-600v-401h-300zM248 1640v20q0 40 40 50q155 50 310.5 10t310.5 10q40 10 40 -30v-20q0 -40 -40 -50q-155 -50 -310.5 -10t-310.5 -10q-40 -10 -40 30zM300 701h600v500h-600v-500z" />
<glyph unicode="&#xc8;" horiz-adv-x="1200" d="M0 200q0 -200 200 -200h800v300h-700v300h300l100 300h-400v300h700v300h-800q-200 0 -200 -200v-1100zM337 1750l250 -150h100l-250 250z" />
<glyph unicode="&#xc9;" horiz-adv-x="1200" d="M0 200q0 -200 200 -200h800v300h-700v300h300l100 300h-400v300h700v300h-800q-200 0 -200 -200v-1100zM424 1600h100l250 150l-100 100z" />
<glyph unicode="&#xca;" horiz-adv-x="1200" d="M0 200q0 -200 200 -200h800v300h-700v300h300l100 300h-400v300h700v300h-800q-200 0 -200 -200v-1100zM301 1600h100l150 90l150 -90h100l-150 150l-100 100l-100 -100z" />
<glyph unicode="&#xcc;" horiz-adv-x="500" d="M0 0h300v1500h-300v-1500zM0 1750l250 -150h100l-250 250z" />
<glyph unicode="&#xcd;" horiz-adv-x="500" d="M-49 1600h100l250 150l-100 100zM0 0h300v1500h-300v-1500z" />
<glyph unicode="&#xd2;" d="M0 200v1100q0 200 200 200h800q200 0 200 -200v-1100q0 -200 -200 -200h-800q-200 0 -200 200zM300 300h600v900h-600v-900zM424 1750l250 -150h100l-250 250z" />
<glyph unicode="&#xd3;" d="M0 200v1100q0 200 200 200h800q200 0 200 -200v-1100q0 -200 -200 -200h-800q-200 0 -200 200zM300 300h600v900h-600v-900zM424 1600h100l250 150l-100 100z" />
<glyph unicode="&#xd4;" d="M0 200v1100q0 200 200 200h800q200 0 200 -200v-1100q0 -200 -200 -200h-800q-200 0 -200 200zM300 300h600v900h-600v-900zM349 1600h100l150 90l150 -90h100l-150 150l-100 100l-100 -100z" />
<glyph unicode="&#xd5;" d="M0 200v1100q0 200 200 200h800q200 0 200 -200v-1100q0 -200 -200 -200h-800q-200 0 -200 200zM251 1640v20q0 40 40 50q155 50 310.5 10t310.5 10q40 10 40 -30v-20q0 -40 -40 -50q-155 -50 -310.5 -10t-310.5 -10q-40 -10 -40 30zM300 300h600v900h-600v-900z" />
<glyph unicode="&#xd9;" d="M0 200v1300h300v-1200h600l1 1200h300v-1300q0 -200 -200 -200h-801q-200 0 -200 200zM424 1750l250 -150h100l-250 250z" />
<glyph unicode="&#xda;" d="M0 200v1300h300v-1200h600l1 1200h300v-1300q0 -200 -200 -200h-801q-200 0 -200 200zM424 1600h100l250 150l-100 100z" />
<glyph unicode="&#xdd;" d="M0 601v900h300v-800h600v800h301l-1 -1300q0 -200 -200 -200h-800l100 300h600v100h-700q-200 0 -200 200zM482 1600h100l250 150l-100 100z" />
<glyph unicode="&#xe0;" d="M0 200v700q0 200 200 200h800q200 0 200 -200v-900h-300l-1 800h-599v-500h500l-100 -300h-499q-201 0 -201 200zM424 1350l250 -150h100l-250 250z" />
<glyph unicode="&#xe1;" d="M0 200v700q0 200 200 200h800q200 0 200 -200v-900h-300l-1 800h-599v-500h500l-100 -300h-499q-201 0 -201 200zM424 1200h100l250 150l-100 100z" />
<glyph unicode="&#xe2;" d="M0 200v700q0 200 200 200h800q200 0 200 -200v-900h-300l-1 800h-599v-500h500l-100 -300h-499q-201 0 -201 200zM349 1199h100l150 90l150 -90h100l-150 150l-100 100l-100 -100z" />
<glyph unicode="&#xe3;" d="M0 200v700q0 200 200 200h800q200 0 200 -200v-900h-300l-1 800h-599v-500h500l-100 -300h-499q-201 0 -201 200zM254 1238v20q0 40 40 50q155 50 310.5 10t310.5 10q40 10 40 -30v-20q0 -40 -40 -50q-155 -50 -310.5 -10t-310.5 -10q-40 -10 -40 30z" />
<glyph unicode="&#xe8;" d="M0 200q0 -200 200 -200h701l98 300h-699v500h600v-100h-500v-300h600q200 0 200 200v300q0 200 -200 200h-800q-200 0 -200 -200v-700zM424 1350l250 -150h100l-250 250z" />
<glyph unicode="&#xe9;" d="M0 200q0 -200 200 -200h701l98 300h-699v500h600v-100h-500v-300h600q200 0 200 200v300q0 200 -200 200h-800q-200 0 -200 -200v-700zM424 1200h100l250 150l-100 100z" />
<glyph unicode="&#xea;" d="M0 200q0 -200 200 -200h701l98 300h-699v500h600v-100h-500v-300h600q200 0 200 200v300q0 200 -200 200h-800q-200 0 -200 -200v-700zM349 1249h100l150 90l150 -90h100l-150 150l-100 100l-100 -100z" />
<glyph unicode="&#xec;" horiz-adv-x="500" d="M0 0v1100h300v-1100h-300zM0 1350l250 -150h100l-250 250z" />
<glyph unicode="&#xed;" horiz-adv-x="500" d="M-49 1200h100l250 150l-100 100zM0 0v1100h300v-1100h-300z" />
<glyph unicode="&#xf2;" d="M0 200v700q0 200 200 200h800q200 0 200 -200v-700q0 -200 -200 -200h-800q-200 0 -200 200zM300 300h600v500h-600v-500zM424 1350l250 -150h100l-250 250z" />
<glyph unicode="&#xf3;" d="M0 200v700q0 200 200 200h800q200 0 200 -200v-700q0 -200 -200 -200h-800q-200 0 -200 200zM300 300h600v500h-600v-500zM424 1200h100l250 150l-100 100z" />
<glyph unicode="&#xf4;" d="M0 200v700q0 200 200 200h800q200 0 200 -200v-700q0 -200 -200 -200h-800q-200 0 -200 200zM300 300h600v500h-600v-500zM349 1249h100l150 90l150 -90h100l-150 150l-100 100l-100 -100z" />
<glyph unicode="&#xf5;" d="M0 200v700q0 200 200 200h800q200 0 200 -200v-700q0 -200 -200 -200h-800q-200 0 -200 200zM250 1240v20q0 40 40 50q155 50 310.5 10t310.5 10q40 10 40 -30v-20q0 -40 -40 -50q-155 -50 -310.5 -10t-310.5 -10q-40 -10 -40 30zM300 300h600v500h-600v-500z" />
<glyph unicode="&#xf9;" horiz-adv-x="582" />
<glyph unicode="&#xfa;" horiz-adv-x="580" />
<glyph unicode="&#xfd;" horiz-adv-x="629" />
<glyph unicode="&#x102;" d="M0 0v1301q0 200 200 200h800q200 0 200 -200v-1301h-300v401h-600v-401h-300zM300 701h600v500h-600v-500zM349 1771q58 -138 159.5 -175.5t198 12.5t142.5 163h-100q-152 -174 -300 0h-100z" />
<glyph unicode="&#x103;" d="M0 200v700q0 200 200 200h800q200 0 200 -200v-900h-300l-1 800h-599v-500h500l-100 -300h-499q-201 0 -201 200zM359 1374q58 -138 159.5 -175.5t198 12.5t142.5 163h-100q-152 -174 -300 0h-100z" />
<glyph unicode="&#x110;" d="M-91 567v296h91v637h1001q200 0 200 -200l-1 -1100q0 -200 -200 -200h-1000v567h-91zM300 300h600v899h-600v-336h197l-116 -296h-81v-267z" />
<glyph unicode="&#x111;" d="M0 200v700q0 200 200 200h600l-100 -300h-400v-500h600v873h-256l53 223h203v104h300v-1300q0 -200 -200 -200h-800q-200 0 -200 200z" />
<glyph unicode="&#x128;" horiz-adv-x="500" d="M-120 1640v20q0 40 40 50q155 50 310.5 10t310.5 10q40 10 40 -30v-20q0 -40 -40 -50q-155 -50 -310.5 -10t-310.5 -10q-40 -10 -40 30zM0 0h300v1500h-300v-1500z" />
<glyph unicode="&#x129;" horiz-adv-x="500" d="M-162 1238v20q0 40 40 50q155 50 310.5 10t310.5 10q40 10 40 -30v-20q0 -40 -40 -50q-155 -50 -310.5 -10t-310.5 -10q-40 -10 -40 30zM0 0v1100h300v-1100h-300z" />
<glyph unicode="&#x168;" d="M0 200v1300h300v-1200h600l1 1200h300v-1300q0 -200 -200 -200h-801q-200 0 -200 200zM309 1640v20q0 40 40 50q155 50 310.5 10t310.5 10q40 10 40 -30v-20q0 -40 -40 -50q-155 -50 -310.5 -10t-310.5 -10q-40 -10 -40 30z" />
<glyph unicode="&#x169;" d="M0 200v900h300v-800h600l1 800h300v-900q0 -200 -200 -200h-801q-200 0 -200 200zM264 1238v20q0 40 40 50q155 50 310.5 10t310.5 10q40 10 40 -30v-20q0 -40 -40 -50q-155 -50 -310.5 -10t-310.5 -10q-40 -10 -40 30z" />
<glyph unicode="&#x1a0;" d="M0 200v1100q0 200 200 200h800q137 0 180 -94v173h144v-267l-124 -119v-993q0 -200 -200 -200h-800q-200 0 -200 200zM300 300h600v900h-600v-900z" />
<glyph unicode="&#x1a1;" d="M0 200v700q0 200 200 200h800q137 0 180 -94v185h144v-267l-124 -119v-605q0 -200 -200 -200h-800q-200 0 -200 200zM300 300h600v500h-600v-500z" />
<glyph unicode="&#x1af;" d="M0 200v1300h300v-1200h600l1 1200h279v79h144v-267l-123 -118v-994q0 -200 -200 -200h-801q-200 0 -200 200z" />
<glyph unicode="&#x1b0;" d="M0 200v900h300v-800h600l1 800h300v-900q0 -200 -200 -200h-801q-200 0 -200 200zM1180 786v405h144v-267z" />
<glyph unicode="&#x1ea0;" d="M0 0v1301q0 200 200 200h800q200 0 200 -200v-1301h-300v401h-600v-401h-300zM300 701h600v500h-600v-500zM479 -186q0 -49 32 -81t89 -32q56 0 88.5 32t32.5 81q0 48 -32.5 80.5t-90.5 32.5q-55 0 -87 -32.5t-32 -80.5z" />
<glyph unicode="&#x1ea1;" d="M0 200v700q0 200 200 200h800q200 0 200 -200v-900h-300l-1 800h-599v-500h500l-100 -300h-499q-201 0 -201 200zM479 -186q0 -49 32 -81t89 -32q56 0 88.5 32t32.5 81q0 48 -32.5 80.5t-90.5 32.5q-55 0 -87 -32.5t-32 -80.5z" />
<glyph unicode="&#x1ea2;" d="M0 0v1301q0 200 200 200h800q200 0 200 -200v-1301h-300v401h-600v-401h-300zM300 701h600v500h-600v-500zM435 1861l29 -87h234v-88h-117q-59 0 -59 -58v-88h88v59h117q58 0 58 58v146q0 58 -58 58h-292z" />
<glyph unicode="&#x1ea3;" d="M0 200v700q0 200 200 200h800q200 0 200 -200v-900h-300l-1 800h-599v-500h500l-100 -300h-499q-201 0 -201 200zM425 1483l29 -87h234v-88h-117q-59 0 -59 -58v-88h88v59h117q58 0 58 58v146q0 58 -58 58h-292z" />
<glyph unicode="&#x1ea4;" d="M0 0v1301q0 200 200 200h800q200 0 200 -200v-1301h-300v401h-600v-401h-300zM300 701h600v500h-600v-500zM349 1600h100l150 90l150 -90h100l-150 150l-100 100l-100 -100zM695 1803h100l250 150l-100 100z" />
<glyph unicode="&#x1ea5;" d="M0 200v700q0 200 200 200h800q200 0 200 -200v-900h-300l-1 800h-599v-500h500l-100 -300h-499q-201 0 -201 200zM349 1199h100l150 90l150 -90h100l-150 150l-100 100l-100 -100zM686 1413h100l250 150l-100 100z" />
<glyph unicode="&#x1ea6;" d="M0 0v1301q0 200 200 200h800q200 0 200 -200v-1301h-300v401h-600v-401h-300zM300 701h600v500h-600v-500zM349 1600h100l150 90l150 -90h100l-150 150l-100 100l-100 -100zM492 1953l250 -150h100l-250 250z" />
<glyph unicode="&#x1ea7;" d="M0 200v700q0 200 200 200h800q200 0 200 -200v-900h-300l-1 800h-599v-500h500l-100 -300h-499q-201 0 -201 200zM349 1199h100l150 90l150 -90h100l-150 150l-100 100l-100 -100zM482 1563l250 -150h100l-250 250z" />
<glyph unicode="&#x1ea8;" d="M0 0v1301q0 200 200 200h800q200 0 200 -200v-1301h-300v401h-600v-401h-300zM300 701h600v500h-600v-500zM349 1600l150 150l100 100l100 -100l150 -150h-100l-150 90l-150 -90h-100zM639 2074h292q58 0 58 -58v-146q0 -58 -58 -58h-117v-59h-88v88q0 58 59 58h117v88 h-234z" />
<glyph unicode="&#x1ea9;" d="M0 200v700q0 200 200 200h800q200 0 200 -200v-900h-300l-1 800h-599v-500h500l-100 -300h-499q-201 0 -201 200zM349 1199h100l150 90l150 -90h100l-150 150l-100 100l-100 -100zM639 1686l29 -87h234v-88h-117q-59 0 -59 -58v-88h88v59h117q58 0 58 58v146q0 58 -58 58 h-292z" />
<glyph unicode="&#x1eaa;" d="M0 0v1301q0 200 200 200h800q200 0 200 -200v-1301h-300v401h-600v-401h-300zM300 701h600v500h-600v-500zM336 1902q0 -40 40 -30q155 50 310.5 10t310.5 10q40 10 40 50v20q0 40 -40 30q-155 -50 -310.5 -10t-310.5 -10q-40 -10 -40 -50v-20zM349 1600h100l150 90 l150 -90h100l-150 150l-100 100l-100 -100z" />
<glyph unicode="&#x1eab;" d="M0 200v700q0 200 200 200h800q200 0 200 -200v-900h-300l-1 800h-599v-500h500l-100 -300h-499q-201 0 -201 200zM339 1495v20q0 40 40 50q155 50 310.5 10t310.5 10q40 10 40 -30v-20q0 -40 -40 -50q-155 -50 -310.5 -10t-310.5 -10q-40 -10 -40 30zM349 1199h100 l150 90l150 -90h100l-150 150l-100 100l-100 -100z" />
<glyph unicode="&#x1eac;" d="M0 0v1301q0 200 200 200h800q200 0 200 -200v-1301h-300v401h-600v-401h-300zM300 701h600v500h-600v-500zM349 1600h100l150 90l150 -90h100l-150 150l-100 100l-100 -100zM479 -186q0 -49 32 -81t89 -32q56 0 88.5 32t32.5 81q0 48 -32.5 80.5t-90.5 32.5 q-55 0 -87 -32.5t-32 -80.5z" />
<glyph unicode="&#x1ead;" d="M0 200v700q0 200 200 200h800q200 0 200 -200v-900h-300l-1 800h-599v-500h500l-100 -300h-499q-201 0 -201 200zM349 1199h100l150 90l150 -90h100l-150 150l-100 100l-100 -100zM479 -186q0 -49 32 -81t89 -32q56 0 88.5 32t32.5 81q0 48 -32.5 80.5t-90.5 32.5 q-55 0 -87 -32.5t-32 -80.5z" />
<glyph unicode="&#x1eae;" d="M0 0v1301q0 200 200 200h800q200 0 200 -200v-1301h-300v401h-600v-401h-300zM300 701h600v500h-600v-500zM349 1771q58 -138 159.5 -175.5t198 12.5t142.5 163h-100q-152 -174 -300 0h-100zM522 1784h100l250 150l-100 100z" />
<glyph unicode="&#x1eaf;" d="M0 200v700q0 200 200 200h800q200 0 200 -200v-900h-300l-1 800h-599v-500h500l-100 -300h-499q-201 0 -201 200zM359 1374q58 -138 159.5 -175.5t198 12.5t142.5 163h-100q-152 -174 -300 0h-100zM541 1393h100l250 150l-100 100z" />
<glyph unicode="&#x1eb0;" d="M0 0v1301q0 200 200 200h800q200 0 200 -200v-1301h-300v401h-600v-401h-300zM300 701h600v500h-600v-500zM338 1934l250 -150h100l-250 250zM349 1771q58 -138 159.5 -175.5t198 12.5t142.5 163h-100q-152 -174 -300 0h-100z" />
<glyph unicode="&#x1eb1;" d="M0 200v700q0 200 200 200h800q200 0 200 -200v-900h-300l-1 800h-599v-500h500l-100 -300h-499q-201 0 -201 200zM337 1543l250 -150h100l-250 250zM359 1374q58 -138 159.5 -175.5t198 12.5t142.5 163h-100q-152 -174 -300 0h-100z" />
<glyph unicode="&#x1eb2;" d="M0 0v1301q0 200 200 200h800q200 0 200 -200v-1301h-300v401h-600v-401h-300zM300 701h600v500h-600v-500zM349 1771q58 -138 159.5 -175.5t198 12.5t142.5 163h-100q-152 -174 -300 0h-100zM455 2064l29 -87h234v-88h-117q-59 0 -59 -58v-88h88v59h117q58 0 58 58v146 q0 58 -58 58h-292z" />
<glyph unicode="&#x1eb3;" d="M0 200v700q0 200 200 200h800q200 0 200 -200v-900h-300l-1 800h-599v-500h500l-100 -300h-499q-201 0 -201 200zM359 1374q58 -138 159.5 -175.5t198 12.5t142.5 163h-100q-152 -174 -300 0h-100zM474 1686l29 -87h234v-88h-117q-59 0 -59 -58v-88h88v59h117q58 0 58 58 v146q0 58 -58 58h-292z" />
<glyph unicode="&#x1eb4;" d="M0 0v1301q0 200 200 200h800q200 0 200 -200v-1301h-300v401h-600v-401h-300zM249 1853q0 -40 40 -30q155 50 310.5 10t310.5 10q40 10 40 50v20q0 40 -40 30q-155 -50 -310.5 -10t-310.5 -10q-40 -10 -40 -50v-20zM300 701h600v500h-600v-500zM349 1771 q58 -138 159.5 -175.5t198 12.5t142.5 163h-100q-152 -174 -300 0h-100z" />
<glyph unicode="&#x1eb5;" d="M0 200v700q0 200 200 200h800q200 0 200 -200v-900h-300l-1 800h-599v-500h500l-100 -300h-499q-201 0 -201 200zM339 1455v20q0 40 40 50q155 50 310.5 10t310.5 10q40 10 40 -30v-20q0 -40 -40 -50q-155 -50 -310.5 -10t-310.5 -10q-40 -10 -40 30zM359 1374h100 q148 -174 300 0h100q-46 -113 -142.5 -163t-198 -12.5t-159.5 175.5z" />
<glyph unicode="&#x1eb6;" d="M0 0v1301q0 200 200 200h800q200 0 200 -200v-1301h-300v401h-600v-401h-300zM300 701h600v500h-600v-500zM349 1771q58 -138 159.5 -175.5t198 12.5t142.5 163h-100q-152 -174 -300 0h-100zM479 -186q0 -49 32 -81t89 -32q56 0 88.5 32t32.5 81q0 48 -32.5 80.5 t-90.5 32.5q-55 0 -87 -32.5t-32 -80.5z" />
<glyph unicode="&#x1eb7;" d="M0 200v700q0 200 200 200h800q200 0 200 -200v-900h-300l-1 800h-599v-500h500l-100 -300h-499q-201 0 -201 200zM359 1374q58 -138 159.5 -175.5t198 12.5t142.5 163h-100q-152 -174 -300 0h-100zM479 -186q0 -49 32 -81t89 -32q56 0 88.5 32t32.5 81q0 48 -32.5 80.5 t-90.5 32.5q-55 0 -87 -32.5t-32 -80.5z" />
<glyph unicode="&#x1eb8;" horiz-adv-x="1200" d="M0 200q0 -200 200 -200h800v300h-700v300h300l100 300h-400v300h700v300h-800q-200 0 -200 -200v-1100zM359 -186q0 -49 32 -81t89 -32q56 0 88.5 32t32.5 81q0 48 -32.5 80.5t-90.5 32.5q-55 0 -87 -32.5t-32 -80.5z" />
<glyph unicode="&#x1eb9;" d="M0 200q0 -200 200 -200h701l98 300h-699v500h600v-100h-500v-300h600q200 0 200 200v300q0 200 -200 200h-800q-200 0 -200 -200v-700zM479 -186q0 -49 32 -81t89 -32q56 0 88.5 32t32.5 81q0 48 -32.5 80.5t-90.5 32.5q-55 0 -87 -32.5t-32 -80.5z" />
<glyph unicode="&#x1eba;" horiz-adv-x="1200" d="M0 200q0 -200 200 -200h800v300h-700v300h300l100 300h-400v300h700v300h-800q-200 0 -200 -200v-1100zM397 1861l29 -87h234v-88h-117q-59 0 -59 -58v-88h88v59h117q58 0 58 58v146q0 58 -58 58h-292z" />
<glyph unicode="&#x1ebb;" d="M0 200q0 -200 200 -200h701l98 300h-699v500h600v-100h-500v-300h600q200 0 200 200v300q0 200 -200 200h-800q-200 0 -200 -200v-700zM425 1483l29 -87h234v-88h-117q-59 0 -59 -58v-88h88v59h117q58 0 58 58v146q0 58 -58 58h-292z" />
<glyph unicode="&#x1ebc;" horiz-adv-x="1200" d="M0 200q0 -200 200 -200h800v300h-700v300h300l100 300h-400v300h700v300h-800q-200 0 -200 -200v-1100zM180 1640v20q0 40 40 50q155 50 310.5 10t310.5 10q40 10 40 -30v-20q0 -40 -40 -50q-155 -50 -310.5 -10t-310.5 -10q-40 -10 -40 30z" />
<glyph unicode="&#x1ebd;" d="M0 200q0 -200 200 -200h701l98 300h-699v500h600v-100h-500v-300h600q200 0 200 200v300q0 200 -200 200h-800q-200 0 -200 -200v-700zM254 1238v20q0 40 40 50q155 50 310.5 10t310.5 10q40 10 40 -30v-20q0 -40 -40 -50q-155 -50 -310.5 -10t-310.5 -10q-40 -10 -40 30 z" />
<glyph unicode="&#x1ebe;" horiz-adv-x="1200" d="M0 200q0 -200 200 -200h800v300h-700v300h300l100 300h-400v300h700v300h-800q-200 0 -200 -200v-1100zM301 1600h100l150 90l150 -90h100l-150 150l-100 100l-100 -100zM648 1813h100l250 150l-100 100z" />
<glyph unicode="&#x1ebf;" d="M0 200q0 -200 200 -200h701l98 300h-699v500h600v-100h-500v-300h600q200 0 200 200v300q0 200 -200 200h-800q-200 0 -200 -200v-700zM349 1249h100l150 90l150 -90h100l-150 150l-100 100l-100 -100zM676 1442h100l250 150l-100 100z" />
<glyph unicode="&#x1ec0;" horiz-adv-x="1200" d="M0 200q0 -200 200 -200h800v300h-700v300h300l100 300h-400v300h700v300h-800q-200 0 -200 -200v-1100zM301 1600h100l150 90l150 -90h100l-150 150l-100 100l-100 -100zM444 1963l250 -150h100l-250 250z" />
<glyph unicode="&#x1ec1;" d="M0 200q0 -200 200 -200h701l98 300h-699v500h600v-100h-500v-300h600q200 0 200 200v300q0 200 -200 200h-800q-200 0 -200 -200v-700zM349 1249h100l150 90l150 -90h100l-150 150l-100 100l-100 -100zM473 1611l250 -150h100l-250 250z" />
<glyph unicode="&#x1ec2;" horiz-adv-x="1200" d="M0 200q0 -200 200 -200h800v300h-700v300h300l100 300h-400v300h700v300h-800q-200 0 -200 -200v-1100zM301 1600h100l150 90l150 -90h100l-150 150l-100 100l-100 -100zM591 2093l29 -87h234v-88h-117q-59 0 -59 -58v-88h88v59h117q58 0 58 58v146q0 58 -58 58h-292z " />
<glyph unicode="&#x1ec3;" d="M0 200q0 -200 200 -200h701l98 300h-699v500h600v-100h-500v-300h600q200 0 200 200v300q0 200 -200 200h-800q-200 0 -200 -200v-700zM349 1249h100l150 90l150 -90h100l-150 150l-100 100l-100 -100zM639 1725l29 -87h234v-88h-117q-59 0 -59 -58v-88h88v59h117 q58 0 58 58v146q0 58 -58 58h-292z" />
<glyph unicode="&#x1ec4;" horiz-adv-x="1200" d="M0 200q0 -200 200 -200h800v300h-700v300h300l100 300h-400v300h700v300h-800q-200 0 -200 -200v-1100zM288 1902q0 -40 40 -30q155 50 310.5 10t310.5 10q40 10 40 50v20q0 40 -40 30q-155 -50 -310.5 -10t-310.5 -10q-40 -10 -40 -50v-20zM301 1600h100l150 90l150 -90 h100l-150 150l-100 100l-100 -100z" />
<glyph unicode="&#x1ec5;" d="M0 200q0 -200 200 -200h701l98 300h-699v500h600v-100h-500v-300h600q200 0 200 200v300q0 200 -200 200h-800q-200 0 -200 -200v-700zM349 1249h100l150 90l150 -90h100l-150 150l-100 100l-100 -100zM358 1534v20q0 40 40 50q155 50 310.5 10t310.5 10q40 10 40 -30 v-20q0 -40 -40 -50q-155 -50 -310.5 -10t-310.5 -10q-40 -10 -40 30z" />
<glyph unicode="&#x1ec6;" horiz-adv-x="1200" d="M0 200q0 -200 200 -200h800v300h-700v300h300l100 300h-400v300h700v300h-800q-200 0 -200 -200v-1100zM301 1600h100l150 90l150 -90h100l-150 150l-100 100l-100 -100zM430 -186q0 -49 32 -81t89 -32q56 0 88.5 32t32.5 81q0 48 -32.5 80.5t-90.5 32.5q-55 0 -87 -32.5 t-32 -80.5z" />
<glyph unicode="&#x1ec7;" d="M0 200q0 -200 200 -200h701l98 300h-699v500h600v-100h-500v-300h600q200 0 200 200v300q0 200 -200 200h-800q-200 0 -200 -200v-700zM349 1249h100l150 90l150 -90h100l-150 150l-100 100l-100 -100zM479 -186q0 -49 32 -81t89 -32q56 0 88.5 32t32.5 81 q0 48 -32.5 80.5t-90.5 32.5q-55 0 -87 -32.5t-32 -80.5z" />
<glyph unicode="&#x1ec8;" horiz-adv-x="500" d="M0 0h300v1500h-300v-1500zM10 1861l29 -87h234v-88h-117q-59 0 -59 -58v-88h88v59h117q58 0 58 58v146q0 58 -58 58h-292z" />
<glyph unicode="&#x1ec9;" horiz-adv-x="500" d="M0 0v1100h300v-1100h-300zM9 1483l29 -87h234v-88h-117q-59 0 -59 -58v-88h88v59h117q58 0 58 58v146q0 58 -58 58h-292z" />
<glyph unicode="&#x1eca;" horiz-adv-x="500" d="M0 0h300v1500h-300v-1500zM29 -186q0 -49 32 -81t89 -32q56 0 88.5 32t32.5 81q0 48 -32.5 80.5t-90.5 32.5q-55 0 -87 -32.5t-32 -80.5z" />
<glyph unicode="&#x1ecb;" horiz-adv-x="500" d="M0 0v1100h300v-1100h-300zM0 1200h200l100 300h-300v-300zM33 -186q0 -49 32 -81t89 -32q56 0 88.5 32t32.5 81q0 48 -32.5 80.5t-90.5 32.5q-55 0 -87 -32.5t-32 -80.5z" />
<glyph unicode="&#x1ecc;" d="M0 200v1100q0 200 200 200h800q200 0 200 -200v-1100q0 -200 -200 -200h-800q-200 0 -200 200zM300 300h600v900h-600v-900zM479 -186q0 -49 32 -81t89 -32q56 0 88.5 32t32.5 81q0 48 -32.5 80.5t-90.5 32.5q-55 0 -87 -32.5t-32 -80.5z" />
<glyph unicode="&#x1ecd;" d="M0 200v700q0 200 200 200h800q200 0 200 -200v-700q0 -200 -200 -200h-800q-200 0 -200 200zM300 300h600v500h-600v-500zM479 -186q0 -49 32 -81t89 -32q56 0 88.5 32t32.5 81q0 48 -32.5 80.5t-90.5 32.5q-55 0 -87 -32.5t-32 -80.5z" />
<glyph unicode="&#x1ece;" d="M0 200v1100q0 200 200 200h800q200 0 200 -200v-1100q0 -200 -200 -200h-800q-200 0 -200 200zM300 300h600v900h-600v-900zM425 1861l29 -87h234v-88h-117q-59 0 -59 -58v-88h88v59h117q58 0 58 58v146q0 58 -58 58h-292z" />
<glyph unicode="&#x1ecf;" d="M0 200v700q0 200 200 200h800q200 0 200 -200v-700q0 -200 -200 -200h-800q-200 0 -200 200zM300 300h600v500h-600v-500zM425 1483l29 -87h234v-88h-117q-59 0 -59 -58v-88h88v59h117q58 0 58 58v146q0 58 -58 58h-292z" />
<glyph unicode="&#x1ed0;" d="M0 200v1100q0 200 200 200h800q200 0 200 -200v-1100q0 -200 -200 -200h-800q-200 0 -200 200zM300 300h600v900h-600v-900zM349 1600h100l150 90l150 -90h100l-150 150l-100 100l-100 -100zM696 1813h100l250 150l-100 100z" />
<glyph unicode="&#x1ed1;" d="M0 200v700q0 200 200 200h800q200 0 200 -200v-700q0 -200 -200 -200h-800q-200 0 -200 200zM300 300h600v500h-600v-500zM349 1249h100l150 90l150 -90h100l-150 150l-100 100l-100 -100zM715 1451h100l250 150l-100 100z" />
<glyph unicode="&#x1ed2;" d="M0 200v1100q0 200 200 200h800q200 0 200 -200v-1100q0 -200 -200 -200h-800q-200 0 -200 200zM300 300h600v900h-600v-900zM349 1600h100l150 90l150 -90h100l-150 150l-100 100l-100 -100zM483 1963l250 -150h100l-250 250z" />
<glyph unicode="&#x1ed3;" d="M0 200v700q0 200 200 200h800q200 0 200 -200v-700q0 -200 -200 -200h-800q-200 0 -200 200zM300 300h600v500h-600v-500zM349 1249h100l150 90l150 -90h100l-150 150l-100 100l-100 -100zM473 1611l250 -150h100l-250 250z" />
<glyph unicode="&#x1ed4;" d="M0 200v1100q0 200 200 200h800q200 0 200 -200v-1100q0 -200 -200 -200h-800q-200 0 -200 200zM300 300h600v900h-600v-900zM349 1600h100l150 90l150 -90h100l-150 150l-100 100l-100 -100zM621 2093l29 -87h234v-88h-117q-59 0 -59 -58v-88h88v59h117q58 0 58 58v146 q0 58 -58 58h-292z" />
<glyph unicode="&#x1ed5;" d="M0 200v700q0 200 200 200h800q200 0 200 -200v-700q0 -200 -200 -200h-800q-200 0 -200 200zM300 300h600v500h-600v-500zM349 1249h100l150 90l150 -90h100l-150 150l-100 100l-100 -100zM639 1725l29 -87h234v-88h-117q-59 0 -59 -58v-88h88v59h117q58 0 58 58v146 q0 58 -58 58h-292z" />
<glyph unicode="&#x1ed6;" d="M0 200v1100q0 200 200 200h800q200 0 200 -200v-1100q0 -200 -200 -200h-800q-200 0 -200 200zM300 300h600v900h-600v-900zM346 1902q0 -40 40 -30q155 50 310.5 10t310.5 10q40 10 40 50v20q0 40 -40 30q-155 -50 -310.5 -10t-310.5 -10q-40 -10 -40 -50v-20zM349 1600 h100l150 90l150 -90h100l-150 150l-100 100l-100 -100z" />
<glyph unicode="&#x1ed7;" d="M0 200v700q0 200 200 200h800q200 0 200 -200v-700q0 -200 -200 -200h-800q-200 0 -200 200zM300 300h600v500h-600v-500zM349 1249h100l150 90l150 -90h100l-150 150l-100 100l-100 -100zM358 1534v20q0 40 40 50q155 50 310.5 10t310.5 10q40 10 40 -30v-20 q0 -40 -40 -50q-155 -50 -310.5 -10t-310.5 -10q-40 -10 -40 30z" />
<glyph unicode="&#x1ed8;" d="M0 200v1100q0 200 200 200h800q200 0 200 -200v-1100q0 -200 -200 -200h-800q-200 0 -200 200zM300 300h600v900h-600v-900zM349 1600h100l150 90l150 -90h100l-150 150l-100 100l-100 -100zM479 -186q0 -49 32 -81t89 -32q56 0 88.5 32t32.5 81q0 48 -32.5 80.5 t-90.5 32.5q-55 0 -87 -32.5t-32 -80.5z" />
<glyph unicode="&#x1ed9;" d="M0 200v700q0 200 200 200h800q200 0 200 -200v-700q0 -200 -200 -200h-800q-200 0 -200 200zM300 300h600v500h-600v-500zM349 1249h100l150 90l150 -90h100l-150 150l-100 100l-100 -100zM479 -186q0 -49 32 -81t89 -32q56 0 88.5 32t32.5 81q0 48 -32.5 80.5 t-90.5 32.5q-55 0 -87 -32.5t-32 -80.5z" />
<glyph unicode="&#x1eda;" d="M0 200v1100q0 200 200 200h800q137 0 180 -94v173h144v-267l-124 -119v-993q0 -200 -200 -200h-800q-200 0 -200 200zM300 300h600v900h-600v-900zM424 1600h100l250 150l-100 100z" />
<glyph unicode="&#x1edb;" d="M0 200v700q0 200 200 200h800q137 0 180 -94v185h144v-267l-124 -119v-605q0 -200 -200 -200h-800q-200 0 -200 200zM300 300h600v500h-600v-500zM424 1200h100l250 150l-100 100z" />
<glyph unicode="&#x1edc;" d="M0 200v1100q0 200 200 200h800q137 0 180 -94v173h144v-267l-124 -119v-993q0 -200 -200 -200h-800q-200 0 -200 200zM300 300h600v900h-600v-900zM424 1750l250 -150h100l-250 250z" />
<glyph unicode="&#x1edd;" d="M0 200v700q0 200 200 200h800q137 0 180 -94v185h144v-267l-124 -119v-605q0 -200 -200 -200h-800q-200 0 -200 200zM300 300h600v500h-600v-500zM424 1350l250 -150h100l-250 250z" />
<glyph unicode="&#x1ede;" d="M0 200v1100q0 200 200 200h800q137 0 180 -94v173h144v-267l-124 -119v-993q0 -200 -200 -200h-800q-200 0 -200 200zM300 300h600v900h-600v-900zM425 1861l29 -87h234v-88h-117q-59 0 -59 -58v-88h88v59h117q58 0 58 58v146q0 58 -58 58h-292z" />
<glyph unicode="&#x1edf;" d="M0 200v700q0 200 200 200h800q137 0 180 -94v185h144v-267l-124 -119v-605q0 -200 -200 -200h-800q-200 0 -200 200zM300 300h600v500h-600v-500zM425 1483l29 -87h234v-88h-117q-59 0 -59 -58v-88h88v59h117q58 0 58 58v146q0 58 -58 58h-292z" />
<glyph unicode="&#x1ee0;" d="M0 200v1100q0 200 200 200h800q137 0 180 -94v173h144v-267l-124 -119v-993q0 -200 -200 -200h-800q-200 0 -200 200zM251 1640v20q0 40 40 50q155 50 310.5 10t310.5 10q40 10 40 -30v-20q0 -40 -40 -50q-155 -50 -310.5 -10t-310.5 -10q-40 -10 -40 30zM300 300h600 v900h-600v-900z" />
<glyph unicode="&#x1ee1;" d="M0 200v700q0 200 200 200h800q137 0 180 -94v185h144v-267l-124 -119v-605q0 -200 -200 -200h-800q-200 0 -200 200zM250 1240v20q0 40 40 50q155 50 310.5 10t310.5 10q40 10 40 -30v-20q0 -40 -40 -50q-155 -50 -310.5 -10t-310.5 -10q-40 -10 -40 30zM300 300h600v500 h-600v-500z" />
<glyph unicode="&#x1ee2;" d="M0 200v1100q0 200 200 200h800q200 0 200 -200v-1100q0 -200 -200 -200h-800q-200 0 -200 200zM300 300h600v900h-600v-900zM479 -186q0 -49 32 -81t89 -32q56 0 88.5 32t32.5 81q0 48 -32.5 80.5t-90.5 32.5q-55 0 -87 -32.5t-32 -80.5zM1180 1174v405h144v-267z" />
<glyph unicode="&#x1ee3;" d="M0 200v700q0 200 200 200h800q137 0 180 -94v185h144v-267l-124 -119v-605q0 -200 -200 -200h-800q-200 0 -200 200zM300 300h600v500h-600v-500zM479 -186q0 -49 32 -81t89 -32q56 0 88.5 32t32.5 81q0 48 -32.5 80.5t-90.5 32.5q-55 0 -87 -32.5t-32 -80.5z" />
<glyph unicode="&#x1ee4;" d="M0 200v1300h300v-1200h600l1 1200h300v-1300q0 -200 -200 -200h-801q-200 0 -200 200zM479 -186q0 -49 32 -81t89 -32q56 0 88.5 32t32.5 81q0 48 -32.5 80.5t-90.5 32.5q-55 0 -87 -32.5t-32 -80.5z" />
<glyph unicode="&#x1ee5;" d="M0 200v900h300v-800h600l1 800h300v-900q0 -200 -200 -200h-801q-200 0 -200 200zM479 -186q0 -49 32 -81t89 -32q56 0 88.5 32t32.5 81q0 48 -32.5 80.5t-90.5 32.5q-55 0 -87 -32.5t-32 -80.5z" />
<glyph unicode="&#x1ee6;" d="M0 200v1300h300v-1200h600l1 1200h300v-1300q0 -200 -200 -200h-801q-200 0 -200 200zM463 1861l30 -87h233v-88h-117q-58 0 -58 -58v-88h87v59h117q59 0 59 58v146q0 58 -59 58h-292z" />
<glyph unicode="&#x1ee7;" d="M0 200v900h300v-800h600l1 800h300v-900q0 -200 -200 -200h-801q-200 0 -200 200zM425 1483l29 -87h234v-88h-117q-59 0 -59 -58v-88h88v59h117q58 0 58 58v146q0 58 -58 58h-292z" />
<glyph unicode="&#x1ee8;" d="M0 200v1300h300v-1200h600l1 1200h279v79h144v-267l-123 -118v-994q0 -200 -200 -200h-801q-200 0 -200 200zM424 1600h100l250 150l-100 100z" />
<glyph unicode="&#x1ee9;" d="M0 200v900h300v-800h600l1 800h279v91h144v-267l-123 -118v-606q0 -200 -200 -200h-801q-200 0 -200 200zM424 1200h100l250 150l-100 100z" />
<glyph unicode="&#x1eea;" d="M0 200v1300h300v-1200h600l1 1200h279v79h144v-267l-123 -118v-994q0 -200 -200 -200h-801q-200 0 -200 200zM424 1750l250 -150h100l-250 250z" />
<glyph unicode="&#x1eeb;" d="M0 200v900h300v-800h600l1 800h279v91h144v-267l-123 -118v-606q0 -200 -200 -200h-801q-200 0 -200 200zM424 1350l250 -150h100l-250 250z" />
<glyph unicode="&#x1eec;" d="M0 200v1300h300v-1200h600l1 1200h279v79h144v-267l-123 -118v-994q0 -200 -200 -200h-801q-200 0 -200 200zM463 1861l30 -87h233v-88h-117q-58 0 -58 -58v-88h87v59h117q59 0 59 58v146q0 58 -59 58h-292z" />
<glyph unicode="&#x1eed;" d="M0 200v900h300v-800h600l1 800h279v91h144v-267l-123 -118v-606q0 -200 -200 -200h-801q-200 0 -200 200zM425 1483l29 -87h234v-88h-117q-59 0 -59 -58v-88h88v59h117q58 0 58 58v146q0 58 -58 58h-292z" />
<glyph unicode="&#x1eee;" d="M0 200v1300h300v-1200h600l1 1200h279v79h144v-267l-123 -118v-994q0 -200 -200 -200h-801q-200 0 -200 200zM309 1640v20q0 40 40 50q155 50 310.5 10t310.5 10q40 10 40 -30v-20q0 -40 -40 -50q-155 -50 -310.5 -10t-310.5 -10q-40 -10 -40 30z" />
<glyph unicode="&#x1eef;" d="M0 200v900h300v-800h600l1 800h279v91h144v-267l-123 -118v-606q0 -200 -200 -200h-801q-200 0 -200 200zM264 1238v20q0 40 40 50q155 50 310.5 10t310.5 10q40 10 40 -30v-20q0 -40 -40 -50q-155 -50 -310.5 -10t-310.5 -10q-40 -10 -40 30z" />
<glyph unicode="&#x1ef0;" d="M0 200v1300h300v-1200h600l1 1200h279v79h144v-267l-123 -118v-994q0 -200 -200 -200h-801q-200 0 -200 200zM479 -186q0 -49 32 -81t89 -32q56 0 88.5 32t32.5 81q0 48 -32.5 80.5t-90.5 32.5q-55 0 -87 -32.5t-32 -80.5z" />
<glyph unicode="&#x1ef1;" d="M0 200v900h300v-800h600l1 800h279v91h144v-267l-123 -118v-606q0 -200 -200 -200h-801q-200 0 -200 200zM479 -186q0 -49 32 -81t89 -32q56 0 88.5 32t32.5 81q0 48 -32.5 80.5t-90.5 32.5q-55 0 -87 -32.5t-32 -80.5z" />
<glyph unicode="&#x1ef2;" d="M0 601v900h300v-800h600v800h301l-1 -1300q0 -200 -200 -200h-800l100 300h600v100h-700q-200 0 -200 200zM424 1750l250 -150h100l-250 250z" />
<glyph unicode="&#x1ef3;" d="M0 200v900h300v-800h600v800h301l-1 -1300q0 -200 -200 -200h-600l100 300h400v100h-700q-200 0 -200 200z" />
<glyph unicode="&#x1ef4;" d="M0 601v900h300v-800h600v800h301l-1 -1300q0 -200 -200 -200h-800l100 300h600v100h-700q-200 0 -200 200zM479 -186q0 -49 32 -81t89 -32q56 0 88.5 32t32.5 81q0 48 -32.5 80.5t-90.5 32.5q-55 0 -87 -32.5t-32 -80.5z" />
<glyph unicode="&#x1ef5;" d="M0 200v900h300v-800h600v800h301l-1 -1300q0 -200 -200 -200h-600l100 300h400v100h-700q-200 0 -200 200zM176 -186q0 48 32 80.5t87 32.5q58 0 90.5 -32.5t32.5 -80.5q0 -49 -32.5 -81t-88.5 -32q-57 0 -89 32t-32 81z" />
<glyph unicode="&#x1ef6;" d="M0 601v900h300v-800h600v800h301l-1 -1300q0 -200 -200 -200h-800l100 300h600v100h-700q-200 0 -200 200zM455 1861l29 -87h234v-88h-117q-59 0 -59 -58v-88h88v59h117q58 0 58 58v146q0 58 -58 58h-292z" />
<glyph unicode="&#x1ef7;" d="M0 200v900h300v-800h600v800h301l-1 -1300q0 -200 -200 -200h-600l100 300h400v100h-700q-200 0 -200 200zM474 1483l29 -87h234v-88h-117q-59 0 -59 -58v-88h88v59h117q58 0 58 58v146q0 58 -58 58h-292z" />
<glyph unicode="&#x1ef8;" d="M0 601v900h300v-800h600v800h301l-1 -1300q0 -200 -200 -200h-800l100 300h600v100h-700q-200 0 -200 200zM251 1640v20q0 40 40 50q155 50 310.5 10t310.5 10q40 10 40 -30v-20q0 -40 -40 -50q-155 -50 -310.5 -10t-310.5 -10q-40 -10 -40 30z" />
<glyph unicode="&#x1ef9;" d="M0 200v900h300v-800h600v800h301l-1 -1300q0 -200 -200 -200h-600l100 300h400v100h-700q-200 0 -200 200zM264 1238v20q0 40 40 50q155 50 310.5 10t310.5 10q40 10 40 -30v-20q0 -40 -40 -50q-155 -50 -310.5 -10t-310.5 -10q-40 -10 -40 30z" />
<glyph unicode="&#x2000;" horiz-adv-x="1046" />
<glyph unicode="&#x2001;" horiz-adv-x="2093" />
<glyph unicode="&#x2002;" horiz-adv-x="1046" />
<glyph unicode="&#x2003;" horiz-adv-x="2093" />
<glyph unicode="&#x2004;" horiz-adv-x="697" />
<glyph unicode="&#x2005;" horiz-adv-x="523" />
<glyph unicode="&#x2006;" horiz-adv-x="348" />
<glyph unicode="&#x2007;" horiz-adv-x="348" />
<glyph unicode="&#x2008;" horiz-adv-x="261" />
<glyph unicode="&#x2009;" horiz-adv-x="418" />
<glyph unicode="&#x200a;" horiz-adv-x="116" />
<glyph unicode="&#x2010;" horiz-adv-x="1200" d="M0 398l1000 2v300l-900 -2z" />
<glyph unicode="&#x2011;" horiz-adv-x="1200" d="M0 398l1000 2v300l-900 -2z" />
<glyph unicode="&#x2012;" horiz-adv-x="1200" d="M0 398l1000 2v300l-900 -2z" />
<glyph unicode="&#x2013;" horiz-adv-x="1224" d="M0 398l1024 2v300l-922 -2z" />
<glyph unicode="&#x2014;" horiz-adv-x="2248" d="M0 398l2048 2v300l-1843 -2z" />
<glyph unicode="&#x2018;" horiz-adv-x="400" d="M0 1101h150l100 399h-250v-399z" />
<glyph unicode="&#x2019;" horiz-adv-x="400" d="M0 1500l100 -399h150v399h-250z" />
<glyph unicode="&#x201c;" horiz-adv-x="800" d="M0 1099l150 1l100 400h-250v-401zM339 1099l150 1l100 400h-250v-401z" />
<glyph unicode="&#x201d;" horiz-adv-x="700" d="M0 1500l100 -398l150 -1v399h-250zM299 1500l100 -398l150 -1v399h-250z" />
<glyph unicode="&#x2026;" horiz-adv-x="1500" d="M1 0v300h300v-300h-300zM500 0v300h300v-300h-300zM999 0v300h300v-300h-300z" />
<glyph unicode="&#x202f;" horiz-adv-x="418" />
<glyph unicode="&#x205f;" horiz-adv-x="523" />
<glyph unicode="&#x25fc;" horiz-adv-x="1100" d="M0 0v1100h1100v-1100h-1100z" />
</font>
</defs>
</svg>
